<svg width="165" height="48" version="1.1" xmlns="http://www.w3.org/2000/svg" desc="Created with imagetracer.js version 1.2.6"><path fill="rgb(78,167,118)" stroke="rgb(78,167,118)" stroke-width="1" opacity="1" d="M 25.5 2 L 26 5 L 22 7.5 L 21.5 9 Q 18.8 7.8 21 6.5 L 21.5 5 Q 22.8 7.3 24 4.5 L 23.5 3 L 25 3.5 L 25.5 2 Z "></path><path fill="rgb(78,167,118)" stroke="rgb(78,167,118)" stroke-width="1" opacity="1" d="M 26.5 7 L 25.5 9 L 26.5 7 Z "></path><path fill="rgb(78,167,118)" stroke="rgb(78,167,118)" stroke-width="1" opacity="1" d="M 3.5 12 L 4 15.5 L 3 15.5 L 3.5 12 Z "></path><path fill="rgb(78,167,118)" stroke="rgb(78,167,118)" stroke-width="1" opacity="1" d="M 9.5 12 L 16 15 L 15.5 17 L 10.5 14 L 9.5 12 Z "></path><path fill="rgb(78,167,118)" stroke="rgb(78,167,118)" stroke-width="1" opacity="1" d="M 25.5 12 L 28.5 13 L 31 13.5 L 24.5 17 L 24 15.5 L 25.5 12 Z "></path><path fill="rgb(78,167,118)" stroke="rgb(78,167,118)" stroke-width="1" opacity="1" d="M 34.5 15 L 32.5 18 L 34.5 15 Z "></path><path fill="rgb(78,167,118)" stroke="rgb(78,167,118)" stroke-width="1" opacity="1" d="M 17.5 17 L 18 21 Q 15 22.3 16 18.5 L 17.5 17 Z "></path><path fill="rgb(78,167,118)" stroke="rgb(78,167,118)" stroke-width="1" opacity="1" d="M 21 19 L 23 19.5 L 21 20.5 L 21 19 Z "></path><path fill="rgb(78,167,118)" stroke="rgb(78,167,118)" stroke-width="1" opacity="1" d="M 0.5 22 L 1 24.5 L 0 24.5 L 0.5 22 Z "></path><path fill="rgb(78,167,118)" stroke="rgb(78,167,118)" stroke-width="1" opacity="1" d="M 21.5 22 L 23 24.5 L 22 24.5 L 21.5 23 L 20 23.5 L 21.5 22 Z "></path><path fill="rgb(78,167,118)" stroke="rgb(78,167,118)" stroke-width="1" opacity="1" d="M 32.5 31 L 31.5 33 L 32.5 31 Z "></path><path fill="rgb(78,167,118)" stroke="rgb(78,167,118)" stroke-width="1" opacity="1" d="M 8.5 34 L 11.5 38 L 8.5 34 Z "></path><path fill="rgb(78,167,118)" stroke="rgb(78,167,118)" stroke-width="1" opacity="1" d="M 34.5 35 L 33.5 37 L 34.5 35 Z "></path><path fill="rgb(78,167,118)" stroke="rgb(78,167,118)" stroke-width="1" opacity="1" d="M 21 37 L 23 37.5 L 22 42.5 L 22.5 44 L 21 43.5 L 21 37 Z "></path><path fill="rgb(78,167,118)" stroke="rgb(78,167,118)" stroke-width="1" opacity="1" d="M 143.5 38 L 144 40.5 L 143 40.5 L 143.5 38 Z "></path><path fill="rgb(78,167,118)" stroke="rgb(78,167,118)" stroke-width="1" opacity="1" d="M 146.5 38 L 147 41.5 L 146 41.5 L 146.5 38 Z "></path><path fill="rgb(78,167,118)" stroke="rgb(78,167,118)" stroke-width="1" opacity="1" d="M 6.5 39 L 7.5 41 L 6.5 39 Z "></path><path fill="rgb(78,167,118)" stroke="rgb(78,167,118)" stroke-width="1" opacity="1" d="M 27.5 39 L 28 42.5 L 27 42.5 L 27.5 39 Z "></path><path fill="rgb(78,167,118)" stroke="rgb(78,167,118)" stroke-width="1" opacity="1" d="M 80.5 39 L 80 40.5 L 79.5 42 L 79 40.5 L 80.5 39 Z "></path><path fill="rgb(78,167,118)" stroke="rgb(78,167,118)" stroke-width="1" opacity="1" d="M 106.5 39 L 107 41.5 L 106 41.5 L 106.5 39 Z "></path><path fill="rgb(78,167,118)" stroke="rgb(78,167,118)" stroke-width="1" opacity="1" d="M 34.5 42 L 33.5 44 L 34.5 42 Z "></path><path fill="rgb(78,167,118)" stroke="rgb(78,167,118)" stroke-width="1" opacity="1" d="M 17.5 44 L 20 44.5 L 17.5 45 L 17.5 44 Z "></path><path fill="rgb(98,114,168)" stroke="rgb(98,114,168)" stroke-width="1" opacity="1" d="M 129.5 11 L 133 11.5 L 129.5 12 L 129.5 11 Z "></path><path fill="rgb(98,114,168)" stroke="rgb(98,114,168)" stroke-width="1" opacity="1" d="M 126.5 12 L 125.5 14 L 126.5 12 Z "></path><path fill="rgb(98,114,168)" stroke="rgb(98,114,168)" stroke-width="1" opacity="1" d="M 135.5 12 L 137 15.5 L 136 15.5 L 135.5 12 Z "></path><path fill="rgb(98,114,168)" stroke="rgb(98,114,168)" stroke-width="1" opacity="1" d="M 92.5 13 L 93.5 15 L 92.5 13 Z "></path><path fill="rgb(98,114,168)" stroke="rgb(98,114,168)" stroke-width="1" opacity="1" d="M 129.5 13 L 132 13.5 L 129.5 14 L 129.5 13 Z "></path><path fill="rgb(98,114,168)" stroke="rgb(98,114,168)" stroke-width="1" opacity="1" d="M 83.5 14 L 84 30 L 88 30.5 L 84.5 31 L 83 29.5 L 83.5 14 Z "></path><path fill="rgb(98,114,168)" stroke="rgb(98,114,168)" stroke-width="1" opacity="1" d="M 127.5 14 L 126.5 16 L 127.5 14 Z "></path><path fill="rgb(98,114,168)" stroke="rgb(98,114,168)" stroke-width="1" opacity="1" d="M 91.5 15 L 94 18.5 L 93 18.5 L 91.5 15 Z "></path><path fill="rgb(98,114,168)" stroke="rgb(98,114,168)" stroke-width="1" opacity="1" d="M 139.5 17 L 140 22.5 L 139 22.5 L 139.5 17 Z "></path><path fill="rgb(98,114,168)" stroke="rgb(98,114,168)" stroke-width="1" opacity="1" d="M 50.5 18 L 53 18.5 L 52 20.5 L 53.5 23 L 51.5 22 L 51.5 24 L 49 22.5 L 51 22 L 50.5 18 Z "></path><path fill="rgb(98,114,168)" stroke="rgb(98,114,168)" stroke-width="1" opacity="1" d="M 44.5 20 L 49 20.5 L 44.5 21 L 44.5 20 Z "></path><path fill="rgb(98,114,168)" stroke="rgb(98,114,168)" stroke-width="1" opacity="1" d="M 124.5 20 L 125 23.5 L 124 23.5 L 124.5 20 Z "></path><path fill="rgb(98,114,168)" stroke="rgb(98,114,168)" stroke-width="1" opacity="1" d="M 144.5 20 L 147 20.5 L 144.5 21 L 144.5 20 Z "></path><path fill="rgb(98,114,168)" stroke="rgb(98,114,168)" stroke-width="1" opacity="1" d="M 148.5 20 Q 151.8 18.9 151 21.5 L 149.5 21 L 148.5 20 Z "></path><path fill="rgb(98,114,168)" stroke="rgb(98,114,168)" stroke-width="1" opacity="1" d="M 100.5 21 L 101 23.5 L 100 23.5 L 100.5 21 Z "></path><path fill="rgb(98,114,168)" stroke="rgb(98,114,168)" stroke-width="1" opacity="1" d="M 57.5 22 Q 62.8 20.8 64 23.5 Q 62.8 26.3 57.5 25 Q 54.5 23.5 57.5 22 Z M 58 23 L 58 24 L 63 24 L 58 23 Z "></path><path fill="rgb(98,114,168)" stroke="rgb(98,114,168)" stroke-width="1" opacity="1" d="M 43.5 25 L 44 27.5 L 43 27.5 L 43.5 25 Z "></path><path fill="rgb(98,114,168)" stroke="rgb(98,114,168)" stroke-width="1" opacity="1" d="M 125.5 26 L 128 29.5 L 125 27.5 L 125.5 26 Z "></path><path fill="rgb(98,114,168)" stroke="rgb(98,114,168)" stroke-width="1" opacity="1" d="M 105.5 28 L 104.5 30 L 105.5 28 Z "></path><path fill="rgb(98,114,168)" stroke="rgb(98,114,168)" stroke-width="1" opacity="1" d="M 43.5 29 L 49 30.5 L 44.5 31 L 43.5 29 Z "></path><path fill="rgb(98,114,168)" stroke="rgb(98,114,168)" stroke-width="1" opacity="1" d="M 78.5 29 L 80 33 L 78 32.5 L 79 30.5 L 78.5 29 Z "></path><path fill="rgb(98,114,168)" stroke="rgb(98,114,168)" stroke-width="1" opacity="1" d="M 150.5 31 L 149.5 33 L 140 32.5 L 149.5 32 L 150.5 31 Z "></path><path fill="rgb(98,114,168)" stroke="rgb(98,114,168)" stroke-width="1" opacity="1" d="M 42.5 32 L 50 32.5 L 42.5 33 L 42.5 32 Z "></path><path fill="rgb(98,114,168)" stroke="rgb(98,114,168)" stroke-width="1" opacity="1" d="M 82.5 32 L 89 32.5 L 82.5 33 L 82.5 32 Z "></path><path fill="rgb(132,206,164)" stroke="rgb(132,206,164)" stroke-width="1" opacity="1" d="M 29.5 9 L 32 9.5 L 29.5 10 L 29.5 9 Z "></path><path fill="rgb(132,206,164)" stroke="rgb(132,206,164)" stroke-width="1" opacity="1" d="M 30.5 12 L 34 12.5 L 30.5 13 L 30.5 12 Z "></path><path fill="rgb(132,206,164)" stroke="rgb(132,206,164)" stroke-width="1" opacity="1" d="M 0.5 19 L 1 21.5 L 0 21.5 L 0.5 19 Z "></path><path fill="rgb(132,206,164)" stroke="rgb(132,206,164)" stroke-width="1" opacity="1" d="M 27.5 20 L 31 20.5 L 27.5 21 L 27.5 20 Z "></path><path fill="rgb(132,206,164)" stroke="rgb(132,206,164)" stroke-width="1" opacity="1" d="M 22.5 21 L 25 21.5 L 21.5 24 L 22 22.5 L 22.5 21 Z "></path><path fill="rgb(132,206,164)" stroke="rgb(132,206,164)" stroke-width="1" opacity="1" d="M 35.5 22 L 36.5 24 L 35.5 22 Z "></path><path fill="rgb(132,206,164)" stroke="rgb(132,206,164)" stroke-width="1" opacity="1" d="M 0.5 25 L 1 27.5 L 0 27.5 L 0.5 25 Z "></path><path fill="rgb(132,206,164)" stroke="rgb(132,206,164)" stroke-width="1" opacity="1" d="M 13.5 26 L 16 26.5 L 13.5 27 L 13.5 26 Z "></path><path fill="rgb(132,206,164)" stroke="rgb(132,206,164)" stroke-width="1" opacity="1" d="M 36.5 27 L 35.5 29 L 36.5 27 Z "></path><path fill="rgb(132,206,164)" stroke="rgb(132,206,164)" stroke-width="1" opacity="1" d="M 18.5 28 L 19 30.5 L 18 30.5 L 18.5 28 Z "></path><path fill="rgb(132,206,164)" stroke="rgb(132,206,164)" stroke-width="1" opacity="1" d="M 43.5 35 Q 45.8 34.3 45 36.5 L 43.5 35 Z "></path><path fill="rgb(132,206,164)" stroke="rgb(132,206,164)" stroke-width="1" opacity="1" d="M 46.5 37 L 48 37.5 L 46 38.5 L 47 40.5 L 46 40.5 L 45.5 39 L 43.5 40 L 44.5 38 L 46.5 37 Z "></path><path fill="rgb(132,206,164)" stroke="rgb(132,206,164)" stroke-width="1" opacity="1" d="M 50.5 37 L 52 37.5 L 49.5 39 L 50.5 37 Z "></path><path fill="rgb(132,206,164)" stroke="rgb(132,206,164)" stroke-width="1" opacity="1" d="M 54.5 37 L 56.5 38 L 58.5 37 L 60 39.5 L 58.5 39 Q 56.3 38.3 57 40.5 L 54 42.5 L 55 38.5 L 54.5 37 Z "></path><path fill="rgb(132,206,164)" stroke="rgb(132,206,164)" stroke-width="1" opacity="1" d="M 97 37 L 99 37.5 L 96.5 41 L 96 39.5 L 97 37 Z "></path><path fill="rgb(132,206,164)" stroke="rgb(132,206,164)" stroke-width="1" opacity="1" d="M 108.5 37 L 111 38.5 Q 111.8 41.1 108.5 40 L 108.5 39 L 110 38.5 L 108.5 37 Z "></path><path fill="rgb(132,206,164)" stroke="rgb(132,206,164)" stroke-width="1" opacity="1" d="M 115.5 37 L 116.5 39 L 115.5 37 Z "></path><path fill="rgb(132,206,164)" stroke="rgb(132,206,164)" stroke-width="1" opacity="1" d="M 124 37 L 126 37.5 L 125.5 44 L 123.5 45 L 123.5 42 L 125 41.5 L 124 38.5 L 124 37 Z "></path><path fill="rgb(132,206,164)" stroke="rgb(132,206,164)" stroke-width="1" opacity="1" d="M 132.5 37 Q 135.8 35.9 135 38.5 L 133.5 38 L 131.5 39 L 132.5 37 Z "></path><path fill="rgb(132,206,164)" stroke="rgb(132,206,164)" stroke-width="1" opacity="1" d="M 139.5 37 L 140 41.5 L 139 41.5 L 138 38.5 L 139.5 37 Z "></path><path fill="rgb(132,206,164)" stroke="rgb(132,206,164)" stroke-width="1" opacity="1" d="M 72 38 L 74 38.5 L 72.5 41 L 72 38 Z "></path><path fill="rgb(132,206,164)" stroke="rgb(132,206,164)" stroke-width="1" opacity="1" d="M 78.5 38 L 80.5 41 L 78.5 38 Z "></path><path fill="rgb(132,206,164)" stroke="rgb(132,206,164)" stroke-width="1" opacity="1" d="M 82.5 38 L 83.5 40 L 82.5 38 Z "></path><path fill="rgb(132,206,164)" stroke="rgb(132,206,164)" stroke-width="1" opacity="1" d="M 119.5 38 L 121 41.5 L 119 42.5 L 120 40.5 L 119.5 38 Z "></path><path fill="rgb(132,206,164)" stroke="rgb(132,206,164)" stroke-width="1" opacity="1" d="M 86.5 39 L 88 42.5 L 87 42.5 L 86.5 39 Z "></path><path fill="rgb(132,206,164)" stroke="rgb(132,206,164)" stroke-width="1" opacity="1" d="M 93.5 39 L 95 41.5 L 93 42 L 93.5 39 Z "></path><path fill="rgb(132,206,164)" stroke="rgb(132,206,164)" stroke-width="1" opacity="1" d="M 36.5 41 L 35.5 43 L 36.5 41 Z "></path><path fill="rgb(132,206,164)" stroke="rgb(132,206,164)" stroke-width="1" opacity="1" d="M 60.5 41 L 61.5 43 L 60.5 41 Z "></path><path fill="rgb(132,206,164)" stroke="rgb(132,206,164)" stroke-width="1" opacity="1" d="M 64.5 41 L 65.5 43 L 64.5 41 Z "></path><path fill="rgb(41,156,92)" stroke="rgb(41,156,92)" stroke-width="1" opacity="1" d="M 26.5 2 L 27 6.5 Q 25.8 9.8 22 9 L 23 6.5 L 22 4 L 24.5 3 L 24.5 5 Q 27.4 5.7 26.5 2 Z M 25 6 L 24 8 L 26 7 L 25 6 Z "></path><path fill="rgb(41,156,92)" stroke="rgb(41,156,92)" stroke-width="1" opacity="1" d="M 7.5 10 L 10 11.5 L 9 14.5 L 12 19.5 L 9 17.5 L 7.5 10 Z "></path><path fill="rgb(41,156,92)" stroke="rgb(41,156,92)" stroke-width="1" opacity="1" d="M 28.5 10 Q 33.5 9 34.5 12 L 36 11.5 L 36 13.5 L 31.5 18 L 30 17.5 L 34 14.5 L 31 13.5 L 34 12.5 L 27.5 12 L 26 12.5 Q 25.3 10.3 27.5 11 L 28.5 10 Z "></path><path fill="rgb(41,156,92)" stroke="rgb(41,156,92)" stroke-width="1" opacity="1" d="M 11 11 L 14 11.5 L 11.5 13 L 11 11 Z "></path><path fill="rgb(41,156,92)" stroke="rgb(41,156,92)" stroke-width="1" opacity="1" d="M 13.5 13 L 17 14 L 18 16.5 Q 15.3 17.6 16 21 L 13 20.5 L 15 20 L 13 15.5 L 13.5 13 Z M 15 15 L 16 17 Q 17 14 15 15 Z "></path><path fill="rgb(41,156,92)" stroke="rgb(41,156,92)" stroke-width="1" opacity="1" d="M 2.5 14 L 4 18.5 L 3 18.5 L 2.5 17 L 1.5 22 L 1 17.5 L 2.5 14 Z "></path><path fill="rgb(41,156,92)" stroke="rgb(41,156,92)" stroke-width="1" opacity="1" d="M 26.5 15 L 27 17.5 L 25 16.5 L 26.5 15 Z "></path><path fill="rgb(41,156,92)" stroke="rgb(41,156,92)" stroke-width="1" opacity="1" d="M 22 16 L 24 16.5 L 22.5 19 L 22 16 Z "></path><path fill="rgb(41,156,92)" stroke="rgb(41,156,92)" stroke-width="1" opacity="1" d="M 21.5 21 L 19.5 24 L 18 23.5 L 21.5 21 Z "></path><path fill="rgb(41,156,92)" stroke="rgb(41,156,92)" stroke-width="1" opacity="1" d="M 27.5 21 L 32 21.5 L 27.5 22 L 27.5 21 Z "></path><path fill="rgb(41,156,92)" stroke="rgb(41,156,92)" stroke-width="1" opacity="1" d="M 33.5 22 L 38 25.5 L 39 29.5 L 38.5 31 Q 41.5 30.1 40 34.5 L 39 34.5 L 39 32 Q 36.3 33.1 37 30.5 L 38 27 L 35.5 28 L 36 26.5 Q 37.1 23.2 34.5 24 L 33.5 22 Z "></path><path fill="rgb(41,156,92)" stroke="rgb(41,156,92)" stroke-width="1" opacity="1" d="M 6.5 24 L 9 25.5 L 8.5 28 L 6.5 24 Z "></path><path fill="rgb(41,156,92)" stroke="rgb(41,156,92)" stroke-width="1" opacity="1" d="M 22.5 25 L 24 31 Q 27 30 26 33 Q 23.3 34.1 24 31.5 Q 20.9 29.5 22.5 25 Z "></path><path fill="rgb(41,156,92)" stroke="rgb(41,156,92)" stroke-width="1" opacity="1" d="M 5.5 26 L 6 29.5 L 5 29.5 L 5.5 26 Z "></path><path fill="rgb(41,156,92)" stroke="rgb(41,156,92)" stroke-width="1" opacity="1" d="M 9.5 29 L 13 29.5 L 9.5 30 L 9.5 29 Z "></path><path fill="rgb(41,156,92)" stroke="rgb(41,156,92)" stroke-width="1" opacity="1" d="M 30.5 29 L 29.5 31 L 30.5 29 Z "></path><path fill="rgb(41,156,92)" stroke="rgb(41,156,92)" stroke-width="1" opacity="1" d="M 32.5 29 L 35 29.5 Q 32.9 32.8 32.5 29 Z "></path><path fill="rgb(41,156,92)" stroke="rgb(41,156,92)" stroke-width="1" opacity="1" d="M 6.5 31 L 8 33.5 L 6 32.5 L 6.5 31 Z "></path><path fill="rgb(41,156,92)" stroke="rgb(41,156,92)" stroke-width="1" opacity="1" d="M 36.5 33 L 35.5 35 L 36.5 33 Z "></path><path fill="rgb(41,156,92)" stroke="rgb(41,156,92)" stroke-width="1" opacity="1" d="M 32.5 37 L 31.5 39 L 30 38.5 L 32.5 37 Z "></path><path fill="rgb(41,156,92)" stroke="rgb(41,156,92)" stroke-width="1" opacity="1" d="M 38.5 37 L 37 39.5 L 35.5 42 L 34 41.5 L 36 41 L 38.5 37 Z "></path><path fill="rgb(41,156,92)" stroke="rgb(41,156,92)" stroke-width="1" opacity="1" d="M 12.5 38 L 16 39 L 15.5 41 L 12.5 38 Z "></path><path fill="rgb(41,156,92)" stroke="rgb(41,156,92)" stroke-width="1" opacity="1" d="M 8.5 40 L 14.5 44 L 16 43.5 L 15.5 45 L 17 45.5 L 15.5 46 L 8 42 L 8.5 40 Z "></path><path fill="rgb(41,156,92)" stroke="rgb(41,156,92)" stroke-width="1" opacity="1" d="M 31.5 43 L 33 43.5 L 27.5 46 L 26 45.5 L 25.5 47 L 18 47 L 18.5 45 Q 19.8 47.3 24.5 46 Q 26 42.5 27.5 45 L 31.5 43 Z "></path><path fill="rgb(50,70,136)" stroke="rgb(50,70,136)" stroke-width="1" opacity="1" d="M 42 12 L 50.5 12 L 52 13.5 L 53 17.5 Q 50.3 18.6 51 22 L 54 23.5 Q 55 30 51.5 32 L 42 32 L 42 12 Z M 44 14 L 43 17 L 44 19 Q 43 23 49 21 Q 52 20 51 16 Q 50 12 44 14 Z M 45 22 Q 42 23 44 25 L 43 28 L 45 31 Q 51 32 53 28 L 52 24 Q 50 20 45 22 Z "></path><path fill="rgb(50,70,136)" stroke="rgb(50,70,136)" stroke-width="1" opacity="1" d="M 70 12 Q 75.2 9.9 74 14.5 L 79 28.5 L 79 30.5 Q 79.7 33.1 77 32 Q 78 27.3 74.5 26 L 69.5 27 Q 67.3 26.3 68 28.5 L 67 32 Q 64.3 33.1 65 30.5 L 70 12 Z M 71 15 L 69 23 L 69 25 L 75 25 L 73 18 Q 74 14 71 15 Z "></path><path fill="rgb(50,70,136)" stroke="rgb(50,70,136)" stroke-width="1" opacity="1" d="M 82 12 Q 92 10.2 95 16.5 L 96 25.5 L 92.5 31 L 82 32 L 82 12 Z M 83 14 L 83 30 L 85 31 L 91 30 Q 96 28 94 18 Q 91 12 83 14 Z "></path><path fill="rgb(50,70,136)" stroke="rgb(50,70,136)" stroke-width="1" opacity="1" d="M 98.5 12 L 100 13.5 L 104.5 30 L 106 28.5 L 110 12 Q 113 10.8 112 14.5 L 107 32 Q 101.4 34.2 103 28.5 L 98 14.5 L 98.5 12 Z "></path><path fill="rgb(50,70,136)" stroke="rgb(50,70,136)" stroke-width="1" opacity="1" d="M 116 12 L 118 12.5 L 118 33 L 116 32.5 L 116 12 Z "></path><path fill="rgb(50,70,136)" stroke="rgb(50,70,136)" stroke-width="1" opacity="1" d="M 127.5 12 Q 134.3 10.3 136 13.5 L 135.5 15 L 129.5 13 L 126 15.5 L 124 23.5 L 125 27.5 L 127.5 30 L 133.5 31 L 136 29.5 Q 137.3 33.3 133.5 32 L 129.5 33 L 125 30.5 Q 121.5 26.5 123 17.5 L 127.5 12 Z "></path><path fill="rgb(50,70,136)" stroke="rgb(50,70,136)" stroke-width="1" opacity="1" d="M 139 12 L 149.5 12 L 150 14 L 141 14 L 141 19.5 L 144.5 21 L 147.5 20 L 150 21.5 L 141 22 L 141 29.5 L 142.5 31 L 145.5 30 L 147.5 30 Q 151.3 29 150 32 L 139 31.5 L 139 29.5 L 140 26.5 L 140 22.5 L 139 15.5 L 139 13.5 L 139 12 Z "></path><path fill="rgb(50,70,136)" stroke="rgb(50,70,136)" stroke-width="1" opacity="1" d="M 57.5 23 L 63 23.5 L 57.5 24 L 57.5 23 Z "></path><path fill="rgb(16,157,75)" stroke="rgb(16,157,75)" stroke-width="1" opacity="1" d="M 24.5 6 L 26 6.5 L 23.5 8 L 24.5 6 Z "></path><path fill="rgb(16,157,75)" stroke="rgb(16,157,75)" stroke-width="1" opacity="1" d="M 12.5 12 L 16 13.5 L 14.5 14 L 12.5 12 Z "></path><path fill="rgb(16,157,75)" stroke="rgb(16,157,75)" stroke-width="1" opacity="1" d="M 34.5 13 L 31.5 17 L 27 18 Q 25.5 14.3 28.5 15 L 34.5 13 Z "></path><path fill="rgb(16,157,75)" stroke="rgb(16,157,75)" stroke-width="1" opacity="1" d="M 9 14 L 14 16.5 L 15 20 Q 11.2 20.8 10 17.5 L 9 14 Z "></path><path fill="rgb(16,157,75)" stroke="rgb(16,157,75)" stroke-width="1" opacity="1" d="M 2.5 17 L 7 25.5 L 5 26 Q 4.8 35.8 12.5 39 L 16 41.5 L 15 43.5 L 18 45.5 L 16.5 45 Q 9.1 42.9 5 37.5 L 1 27.5 L 1 25.5 L 2.5 17 Z "></path><path fill="rgb(16,157,75)" stroke="rgb(16,157,75)" stroke-width="1" opacity="1" d="M 26.5 22 L 32.5 22 L 36 24 L 33.5 30 L 30.5 29 L 26.5 32 L 24 31 L 23 23 L 26.5 22 Z "></path><path fill="rgb(16,157,75)" stroke="rgb(16,157,75)" stroke-width="1" opacity="1" d="M 9.5 26 L 10.5 27 L 17 27 L 18 31 L 9 29 L 9.5 26 Z "></path><path fill="rgb(16,157,75)" stroke="rgb(16,157,75)" stroke-width="1" opacity="1" d="M 37 32 Q 40.7 30.6 39 36.5 L 36 41 Q 33 40 34 43 L 31.5 43 L 26.5 46 L 27.5 44 L 29 43.5 L 28 40.5 L 37 33.5 L 37 32 Z "></path><path fill="rgb(16,157,75)" stroke="rgb(16,157,75)" stroke-width="1" opacity="1" d="M 22.5 44 L 25 45.5 L 19.5 46 L 19.5 45 L 22.5 44 Z "></path></svg>